<svg width="23" height="19" viewBox="0 0 23 19" fill="none" xmlns="http://www.w3.org/2000/svg">
<path d="M23 2.24918C22.1387 2.63702 21.2252 2.89159 20.2898 3.00444C21.2641 2.41082 22.0123 1.4708 22.3645 0.350783C21.4383 0.909502 20.4249 1.30315 19.3682 1.51473C18.5074 0.582568 17.2811 0 15.9238 0C13.3178 0 11.205 2.14762 11.205 4.79644C11.205 5.17243 11.2467 5.53846 11.3271 5.88961C7.40546 5.68952 3.92851 3.77998 1.60111 0.878008C1.19501 1.58642 0.962316 2.41046 0.962316 3.28938C0.962316 4.95352 1.79544 6.42159 3.06152 7.28178C2.31217 7.25793 1.57932 7.0522 0.924133 6.68177C0.923863 6.70186 0.923863 6.72196 0.923863 6.74214C0.923863 9.06611 2.55039 11.0048 4.70898 11.4454C4.01412 11.6375 3.28525 11.6656 2.57807 11.5276C3.17849 13.4332 4.92119 14.8199 6.98598 14.8587C5.37104 16.1452 3.33635 16.912 1.12565 16.912C0.744715 16.912 0.369168 16.8893 0 16.845C2.08824 18.2059 4.56855 19 7.23332 19C15.9129 19 20.659 11.6911 20.659 5.35271C20.659 5.14467 20.6545 4.93781 20.6454 4.73215C21.5692 4.05331 22.3665 3.2125 23 2.24918Z" fill="#55ACEE"/>
</svg>
